<?xml version="1.0" encoding="UTF-8" standalone="no"?>
<svg
   viewBox="0 0 320 100"
   version="1.1"
   id="svg14"
   xmlns="http://www.w3.org/2000/svg"
   xmlns:svg="http://www.w3.org/2000/svg">
  <defs
     id="defs18" />
  <style
     id="style2">
    .fb-word {
      font-family: 'IBM Plex Sans', sans-serif;
      font-weight: 600;
      font-size: 28px;
      fill: #111213;
      dominant-baseline: middle;
      letter-spacing: 0.5px;
    }
  </style>
  <rect
     x="22"
     y="35"
     width="14"
     height="45"
     rx="7"
     fill="#111213"
     id="rect4" />
  <rect
     x="64"
     y="35"
     width="14"
     height="45"
     rx="7"
     fill="#111213"
     id="rect6" />
  <rect
     x="22"
     y="35"
     width="56"
     height="14"
     rx="7"
     fill="#111213"
     id="rect8" />
  <circle
     cx="50"
     cy="20"
     r="7"
     fill="#5a8a93"
     id="circle10" />
  <g
     aria-label="FunctionBridge"
     id="text12"
     class="fb-word"
     style="font-weight:600;font-size:28px;font-family:'IBM Plex Sans', sans-serif;letter-spacing:0.5px;dominant-baseline:middle;fill:#111213">
    <path
       d="m 115.992,59.308 h -3.696 V 39.764 h 12.572 v 3.276 h -8.876 v 4.76 h 7.728 v 3.248 h -7.728 z"
       id="path20" />
    <path
       d="m 136.76395,59.308 v -2.436 h -0.14 q -0.364,1.092 -1.316,1.932 -0.952,0.84 -2.772,0.84 -2.24,0 -3.472,-1.484 -1.204,-1.512 -1.204,-4.228 v -9.24 h 3.584 v 8.876 q 0,1.512 0.588,2.324 0.588,0.784 1.876,0.784 0.7,0 1.344,-0.252 0.672,-0.252 1.092,-0.756 0.42,-0.532 0.42,-1.316 v -9.66 h 3.584 v 14.616 z"
       id="path22" />
    <path
       d="m 148.57593,59.308 h -3.584 V 44.692 h 3.584 v 2.436 h 0.14 q 0.448,-1.176 1.4,-1.96 0.98,-0.812 2.688,-0.812 2.24,0 3.444,1.512 1.232,1.484 1.232,4.2 v 9.24 h -3.584 v -8.876 q 0,-1.54 -0.56,-2.324 -0.56,-0.812 -1.848,-0.812 -0.728,0 -1.4,0.28 -0.672,0.252 -1.092,0.784 -0.42,0.504 -0.42,1.288 z"
       id="path24" />
    <path
       d="m 167.72391,59.644 q -3.248,0 -5.012,-2.072 -1.736,-2.072 -1.736,-5.6 0,-3.5 1.736,-5.544 1.764,-2.072 5.012,-2.072 2.212,0 3.64,0.98 1.456,0.98 2.1,2.716 l -2.94,1.316 q -0.252,-0.924 -0.952,-1.512 -0.7,-0.616 -1.848,-0.616 -1.484,0 -2.24,0.952 -0.756,0.924 -0.756,2.492 v 2.66 q 0,1.512 0.756,2.464 0.756,0.952 2.24,0.952 1.26,0 1.96,-0.644 0.728,-0.672 1.12,-1.652 l 2.744,1.316 q -0.7,1.932 -2.212,2.912 -1.484,0.952 -3.612,0.952 z"
       id="path26" />
    <path
       d="m 183.95987,59.308 h -2.576 q -1.848,0 -2.828,-0.952 -0.952,-0.98 -0.952,-2.772 V 47.52 h -2.156 v -2.828 h 1.12 q 0.812,0 1.092,-0.364 0.308,-0.392 0.308,-1.148 v -2.492 h 3.22 v 4.004 h 2.996 v 2.828 h -2.996 v 8.932 h 2.772 z"
       id="path28" />
    <path
       d="m 189.58383,42.564 q -1.092,0 -1.596,-0.504 -0.504,-0.532 -0.504,-1.288 v -0.56 q 0,-0.784 0.504,-1.288 0.504,-0.504 1.596,-0.504 1.092,0 1.596,0.504 0.504,0.504 0.504,1.288 v 0.56 q 0,0.756 -0.504,1.288 -0.504,0.504 -1.596,0.504 z m -1.792,16.744 V 44.692 h 3.584 v 14.616 z"
       id="path30" />
    <path
       d="m 201.78782,59.644 q -2.072,0 -3.612,-0.924 -1.512,-0.952 -2.352,-2.66 -0.812,-1.736 -0.812,-4.088 0,-2.352 0.812,-4.032 0.84,-1.708 2.352,-2.632 1.54,-0.952 3.612,-0.952 2.1,0 3.612,0.952 1.54,0.924 2.352,2.632 0.84,1.68 0.84,4.032 0,2.352 -0.84,4.088 -0.812,1.708 -2.352,2.66 -1.512,0.924 -3.612,0.924 z m 0,-2.884 q 1.428,0 2.24,-0.868 0.812,-0.896 0.812,-2.548 v -2.716 q 0,-1.652 -0.812,-2.52 -0.812,-0.868 -2.24,-0.868 -1.372,0 -2.212,0.868 -0.812,0.868 -0.812,2.52 v 2.716 q 0,1.652 0.812,2.548 0.84,0.868 2.212,0.868 z"
       id="path32" />
    <path
       d="m 215.83982,59.308 h -3.584 V 44.692 h 3.584 v 2.436 h 0.14 q 0.448,-1.176 1.4,-1.96 0.98,-0.812 2.688,-0.812 2.24,0 3.444,1.512 1.232,1.484 1.232,4.2 v 9.24 h -3.584 v -8.876 q 0,-1.54 -0.56,-2.324 -0.56,-0.812 -1.848,-0.812 -0.728,0 -1.4,0.28 -0.672,0.252 -1.092,0.784 -0.42,0.504 -0.42,1.288 z"
       id="path34" />
    <path
       d="M 229.4438,59.308 V 39.764 h 9.044 q 2.408,0 3.78,1.372 1.4,1.372 1.4,3.64 0,1.484 -0.504,2.38 -0.504,0.896 -1.316,1.316 -0.784,0.42 -1.68,0.504 v 0.168 q 0.644,0 1.372,0.252 0.728,0.252 1.372,0.784 0.672,0.532 1.064,1.4 0.42,0.868 0.42,2.128 0,1.568 -0.672,2.828 -0.644,1.26 -1.792,2.016 -1.12,0.756 -2.576,0.756 z m 3.696,-8.372 v 5.236 h 5.152 q 0.7,0 1.204,-0.252 0.504,-0.252 0.756,-0.728 0.28,-0.476 0.28,-1.148 v -0.952 q 0,-0.7 -0.28,-1.176 -0.252,-0.476 -0.756,-0.728 -0.504,-0.252 -1.204,-0.252 z m 0,-8.036 v 5.012 h 4.564 q 0.672,0 1.148,-0.252 0.476,-0.252 0.728,-0.7 0.252,-0.476 0.252,-1.12 v -0.868 q 0,-0.644 -0.252,-1.12 -0.252,-0.476 -0.728,-0.7 -0.476,-0.252 -1.148,-0.252 z"
       id="path36" />
    <path
       d="m 251.86775,59.308 h -3.584 V 44.692 h 3.584 v 3.024 h 0.14 q 0.196,-0.784 0.644,-1.456 0.476,-0.7 1.26,-1.12 0.812,-0.448 1.96,-0.448 h 0.784 v 3.388 h -1.12 q -1.204,0 -2.044,0.252 -0.812,0.224 -1.232,0.728 -0.392,0.476 -0.392,1.288 z"
       id="path38" />
    <path
       d="m 261.57973,42.564 q -1.092,0 -1.596,-0.504 -0.504,-0.532 -0.504,-1.288 v -0.56 q 0,-0.784 0.504,-1.288 0.504,-0.504 1.596,-0.504 1.092,0 1.596,0.504 0.504,0.504 0.504,1.288 v 0.56 q 0,0.756 -0.504,1.288 -0.504,0.504 -1.596,0.504 z m -1.792,16.744 V 44.692 h 3.584 v 14.616 z"
       id="path40" />
    <path
       d="m 277.05973,59.308 v -2.436 h -0.14 q -0.392,1.26 -1.484,2.016 -1.092,0.756 -2.548,0.756 -1.82,0 -3.108,-0.896 -1.26,-0.896 -1.932,-2.604 -0.672,-1.736 -0.672,-4.172 0,-2.436 0.672,-4.116 0.672,-1.708 1.932,-2.604 1.288,-0.896 3.108,-0.896 1.456,0 2.548,0.756 1.12,0.728 1.484,1.988 h 0.14 v -8.512 h 3.584 v 20.72 z m -3.024,-2.632 q 0.868,0 1.54,-0.28 0.7,-0.28 1.092,-0.812 0.392,-0.532 0.392,-1.288 v -4.648 q 0,-0.7 -0.392,-1.232 -0.392,-0.532 -1.092,-0.812 -0.672,-0.308 -1.54,-0.308 -1.372,0 -2.24,0.952 -0.868,0.924 -0.868,2.492 v 2.52 q 0,1.54 0.868,2.492 0.868,0.924 2.24,0.924 z"
       id="path42" />
    <path
       d="m 298.47568,60.54 q 0,1.512 -0.756,2.548 -0.756,1.064 -2.436,1.596 -1.68,0.56 -4.48,0.56 -2.464,0 -3.976,-0.42 -1.484,-0.392 -2.156,-1.176 -0.672,-0.784 -0.672,-1.848 0,-1.232 0.7,-1.932 0.7,-0.672 1.904,-0.868 v -0.308 q -0.896,-0.252 -1.4,-0.896 -0.476,-0.644 -0.476,-1.54 0,-1.12 0.812,-1.736 0.812,-0.616 1.876,-0.84 v -0.112 q -1.316,-0.616 -1.988,-1.708 -0.672,-1.092 -0.672,-2.548 0,-1.484 0.672,-2.604 0.7,-1.12 2.044,-1.736 1.372,-0.616 3.332,-0.616 0.728,0 1.372,0.084 0.644,0.084 1.176,0.28 v -0.476 q 0,-1.064 0.532,-1.596 0.532,-0.532 1.54,-0.532 h 2.268 v 2.744 h -3.108 v 0.392 q 1.148,0.644 1.708,1.708 0.56,1.036 0.56,2.352 0,1.456 -0.7,2.576 -0.672,1.12 -2.016,1.736 -1.344,0.588 -3.332,0.588 -0.616,0 -1.204,-0.056 -0.56,-0.084 -1.036,-0.196 -0.42,0.196 -0.728,0.532 -0.308,0.308 -0.308,0.784 0,0.56 0.476,0.84 0.476,0.252 1.428,0.252 h 3.92 q 2.688,0 3.892,1.092 1.232,1.092 1.232,3.08 z m -3.36,0.42 q 0,-0.7 -0.56,-1.092 -0.56,-0.392 -1.932,-0.392 h -4.984 q -0.392,0.308 -0.588,0.7 -0.168,0.392 -0.168,0.812 0,0.84 0.7,1.316 0.7,0.476 2.38,0.476 h 1.792 q 1.736,0 2.548,-0.448 0.812,-0.448 0.812,-1.372 z m -4.312,-9.184 q 1.288,0 1.96,-0.56 0.672,-0.588 0.672,-1.68 V 49.06 q 0,-1.12 -0.672,-1.68 -0.672,-0.56 -1.96,-0.56 -1.26,0 -1.96,0.56 -0.672,0.56 -0.672,1.68 v 0.476 q 0,1.092 0.672,1.68 0.7,0.56 1.96,0.56 z"
       id="path44" />
    <path
       d="m 306.78762,59.644 q -2.156,0 -3.696,-0.924 -1.54,-0.952 -2.38,-2.66 -0.812,-1.736 -0.812,-4.088 0,-2.296 0.812,-4.004 0.812,-1.736 2.324,-2.66 1.512,-0.952 3.64,-0.952 2.296,0 3.752,1.008 1.484,1.008 2.184,2.688 0.728,1.652 0.728,3.668 v 1.176 h -9.716 v 0.364 q 0,1.568 0.896,2.548 0.896,0.98 2.66,0.98 1.316,0 2.184,-0.56 0.868,-0.588 1.54,-1.428 l 1.932,2.156 q -0.896,1.204 -2.464,1.96 -1.54,0.728 -3.584,0.728 z m -0.056,-12.6 q -0.952,0 -1.652,0.448 -0.7,0.42 -1.092,1.204 -0.364,0.756 -0.364,1.764 v 0.224 h 5.992 v -0.252 q 0,-1.036 -0.336,-1.764 -0.336,-0.756 -0.98,-1.176 -0.644,-0.448 -1.568,-0.448 z"
       id="path46" />
  </g>
</svg>
