<?xml version="1.0" encoding="UTF-8" standalone="no"?>
<svg
   viewBox="0 0 360 100"
   version="1.1"
   id="svg16"
   xmlns="http://www.w3.org/2000/svg"
   xmlns:svg="http://www.w3.org/2000/svg">
  <defs
     id="defs20" />
  <!-- Add white background -->
  <style
     id="style4">
    .fb-word {
      font-family: 'IBM Plex Sans', sans-serif;
      font-size: 36px;
      font-weight: 500;
      letter-spacing: -0.025em;
      fill: #111213;
      dominant-baseline: middle;
    }
  </style>
  <!-- Left pillar of the bridge -->
  <rect
     x="22"
     y="35"
     width="14"
     height="45"
     rx="7"
     fill="#111213"
     id="rect6" />
  <!-- Right pillar of the bridge -->
  <rect
     x="64"
     y="35"
     width="14"
     height="45"
     rx="7"
     fill="#111213"
     id="rect8" />
  <!-- Horizontal connection / bridge -->
  <rect
     x="22"
     y="35"
     width="56"
     height="14"
     rx="7"
     fill="#111213"
     id="rect10" />
  <!-- Signature blue node representing the function/data passing over -->
  <circle
     cx="50"
     cy="20"
     r="7"
     fill="#5a8a93"
     id="circle12" />
  <!-- Wordmark using IBM Plex Sans -->
  <g
     aria-label="FunctionBridge"
     id="text14"
     class="fb-word"
     style="font-weight:500;font-size:36px;font-family:'IBM Plex Sans', sans-serif;letter-spacing:-0.025em;dominant-baseline:middle;fill:#111213">
    <path
       d="m 107.164,61.36 h -4.068 V 36.232 h 15.696 v 3.6 h -11.628 v 7.02 h 10.332 v 3.6 h -10.332 z"
       id="path22" />
    <path
       d="m 132.86793,61.36 v -3.096 h -0.18 q -0.504,1.404 -1.728,2.484 -1.188,1.044 -3.528,1.044 -2.844,0 -4.464,-1.872 -1.62,-1.908 -1.62,-5.364 V 42.64 h 3.924 v 11.412 q 0,2.16 0.864,3.312 0.9,1.116 2.7,1.116 1.044,0 1.944,-0.36 0.936,-0.36 1.512,-1.08 0.576,-0.72 0.576,-1.8 v -12.6 h 3.924 v 18.72 z"
       id="path24" />
    <path
       d="m 145.43193,61.36 h -3.924 V 42.64 h 3.924 v 3.096 h 0.18 q 0.612,-1.512 1.836,-2.52 1.26,-1.008 3.42,-1.008 2.88,0 4.464,1.908 1.62,1.908 1.62,5.364 v 11.88 h -3.924 V 49.948 q 0,-2.196 -0.864,-3.276 -0.828,-1.116 -2.664,-1.116 -1.044,0 -1.98,0.36 -0.9,0.324 -1.512,1.044 -0.576,0.72 -0.576,1.8 z"
       id="path26" />
    <path
       d="m 168.72393,61.792 q -4.068,0 -6.3,-2.628 -2.232,-2.664 -2.232,-7.164 0,-4.5 2.232,-7.128 2.232,-2.664 6.3,-2.664 2.808,0 4.608,1.26 1.8,1.26 2.592,3.348 l -3.24,1.512 q -0.396,-1.296 -1.404,-2.052 -1.008,-0.792 -2.556,-0.792 -2.16,0 -3.276,1.368 -1.116,1.332 -1.116,3.492 v 3.312 q 0,2.16 1.116,3.528 1.116,1.368 3.276,1.368 1.692,0 2.736,-0.828 1.044,-0.864 1.656,-2.268 l 2.952,1.584 q -0.9,2.304 -2.772,3.528 -1.872,1.224 -4.572,1.224 z"
       id="path28" />
    <path
       d="m 187.51589,61.36 h -3.42 q -2.016,0 -3.096,-1.08 -1.044,-1.116 -1.044,-3.024 V 45.844 h -2.916 V 42.64 h 1.584 q 0.972,0 1.332,-0.432 0.396,-0.432 0.396,-1.404 v -3.276 h 3.528 v 5.112 h 3.924 v 3.204 h -3.924 v 12.312 h 3.636 z"
       id="path30" />
    <path
       d="m 193.13188,39.292 q -1.224,0 -1.8,-0.576 -0.54,-0.576 -0.54,-1.476 v -0.612 q 0,-0.9 0.54,-1.476 0.576,-0.576 1.8,-0.576 1.224,0 1.764,0.576 0.54,0.576 0.54,1.476 v 0.612 q 0,0.9 -0.54,1.476 -0.54,0.576 -1.764,0.576 z m -1.98,22.068 V 42.64 h 3.924 v 18.72 z"
       id="path32" />
    <path
       d="m 207.09986,61.792 q -2.628,0 -4.572,-1.188 -1.908,-1.224 -2.988,-3.42 -1.044,-2.196 -1.044,-5.184 0,-2.988 1.044,-5.184 1.08,-2.196 2.988,-3.384 1.944,-1.224 4.572,-1.224 2.592,0 4.5,1.224 1.944,1.188 2.988,3.384 1.08,2.196 1.08,5.184 0,2.988 -1.08,5.184 -1.044,2.196 -2.988,3.42 -1.908,1.188 -4.5,1.188 z m 0,-3.276 q 2.016,0 3.204,-1.224 1.224,-1.26 1.224,-3.708 v -3.168 q 0,-2.448 -1.224,-3.672 -1.188,-1.26 -3.204,-1.26 -1.98,0 -3.24,1.26 -1.224,1.224 -1.224,3.672 v 3.168 q 0,2.448 1.224,3.708 1.26,1.224 3.24,1.224 z"
       id="path34" />
    <path
       d="m 223.0478,61.36 h -3.924 V 42.64 h 3.924 v 3.096 h 0.18 q 0.612,-1.512 1.836,-2.52 1.26,-1.008 3.42,-1.008 2.88,0 4.464,1.908 1.62,1.908 1.62,5.364 v 11.88 h -3.924 V 49.948 q 0,-2.196 -0.864,-3.276 -0.828,-1.116 -2.664,-1.116 -1.044,0 -1.98,0.36 -0.9,0.324 -1.512,1.044 -0.576,0.72 -0.576,1.8 z"
       id="path36" />
    <path
       d="M 239.39179,61.36 V 36.232 h 11.124 q 3.096,0 4.896,1.764 1.8,1.764 1.8,4.716 0,1.872 -0.684,3.024 -0.648,1.116 -1.656,1.656 -0.972,0.54 -2.016,0.648 v 0.216 q 0.792,0.036 1.692,0.396 0.9,0.324 1.692,1.008 0.828,0.684 1.332,1.8 0.54,1.08 0.54,2.664 0,2.016 -0.864,3.672 -0.828,1.656 -2.304,2.628 -1.44,0.936 -3.312,0.936 z m 4.068,-11.124 v 7.632 h 6.984 q 1.044,0 1.8,-0.36 0.756,-0.396 1.152,-1.08 0.432,-0.72 0.432,-1.764 V 53.44 q 0,-1.008 -0.432,-1.728 -0.396,-0.72 -1.152,-1.08 -0.756,-0.396 -1.8,-0.396 z m 0,-10.512 v 7.128 h 6.3 q 1.008,0 1.692,-0.324 0.72,-0.36 1.08,-1.008 0.396,-0.684 0.396,-1.656 v -1.152 q 0,-0.936 -0.396,-1.584 -0.36,-0.684 -1.08,-1.044 -0.684,-0.36 -1.692,-0.36 z"
       id="path38" />
    <path
       d="m 265.85174,61.36 h -3.924 V 42.64 h 3.924 v 3.708 h 0.18 q 0.288,-0.936 0.9,-1.764 0.648,-0.864 1.692,-1.404 1.044,-0.54 2.556,-0.54 h 1.044 v 3.78 h -1.548 q -1.548,0 -2.628,0.36 -1.08,0.36 -1.656,1.008 -0.54,0.648 -0.54,1.62 z"
       id="path40" />
    <path
       d="m 276.79572,39.292 q -1.224,0 -1.8,-0.576 -0.54,-0.576 -0.54,-1.476 v -0.612 q 0,-0.9 0.54,-1.476 0.576,-0.576 1.8,-0.576 1.224,0 1.764,0.576 0.54,0.576 0.54,1.476 v 0.612 q 0,0.9 -0.54,1.476 -0.54,0.576 -1.764,0.576 z m -1.98,22.068 V 42.64 h 3.924 v 18.72 z"
       id="path42" />
    <path
       d="m 295.22771,61.36 v -3.096 h -0.18 q -0.648,1.656 -2.016,2.592 -1.368,0.936 -3.24,0.936 -2.34,0 -4.032,-1.152 -1.656,-1.188 -2.556,-3.384 -0.864,-2.196 -0.864,-5.256 0,-3.096 0.864,-5.256 0.9,-2.196 2.556,-3.348 1.692,-1.188 4.032,-1.188 1.872,0 3.276,0.936 1.404,0.9 1.98,2.592 h 0.18 V 34.72 h 3.924 v 26.64 z m -4.248,-2.88 q 1.188,0 2.124,-0.396 0.972,-0.432 1.548,-1.152 0.576,-0.756 0.576,-1.836 V 48.76 q 0,-0.972 -0.576,-1.692 -0.576,-0.72 -1.548,-1.116 -0.936,-0.396 -2.124,-0.396 -2.016,0 -3.276,1.332 -1.224,1.332 -1.224,3.492 v 3.24 q 0,2.16 1.224,3.528 1.26,1.332 3.276,1.332 z"
       id="path44" />
    <path
       d="m 320.31966,63.124 q 0,1.944 -1.008,3.24 -0.972,1.332 -3.06,1.98 -2.088,0.648 -5.472,0.648 -3.024,0 -4.932,-0.54 -1.872,-0.54 -2.736,-1.548 -0.828,-1.008 -0.828,-2.412 0,-1.548 0.828,-2.448 0.864,-0.864 2.376,-1.152 v -0.396 q -1.044,-0.324 -1.584,-1.08 -0.54,-0.756 -0.54,-1.8 0,-1.44 0.972,-2.196 1.008,-0.792 2.376,-1.116 V 54.16 q -1.692,-0.792 -2.592,-2.232 -0.864,-1.44 -0.864,-3.312 0,-1.908 0.864,-3.348 0.9,-1.44 2.556,-2.232 1.692,-0.828 4.032,-0.828 0.972,0 1.8,0.144 0.864,0.144 1.62,0.432 V 42.28 q 0,-1.26 0.612,-1.944 0.612,-0.684 1.836,-0.684 h 2.844 v 3.132 h -3.78 v 0.756 q 1.26,0.864 1.908,2.16 0.684,1.296 0.684,2.916 0,1.872 -0.9,3.312 -0.864,1.44 -2.556,2.232 -1.656,0.792 -4.032,0.792 -0.684,0 -1.332,-0.072 -0.612,-0.072 -1.116,-0.216 -0.684,0.252 -1.224,0.72 -0.54,0.432 -0.54,1.152 0,0.756 0.648,1.08 0.684,0.324 1.944,0.324 h 4.608 q 3.456,0 5.004,1.368 1.584,1.368 1.584,3.816 z m -3.672,0.432 q 0,-1.008 -0.792,-1.584 -0.756,-0.54 -2.664,-0.54 h -6.336 q -0.648,0.36 -0.972,0.9 -0.288,0.576 -0.288,1.26 0,1.116 0.9,1.836 0.9,0.72 3.096,0.72 h 2.448 q 2.304,0 3.456,-0.648 1.152,-0.648 1.152,-1.944 z m -5.904,-11.412 q 1.728,0 2.664,-0.792 0.972,-0.792 0.972,-2.376 V 48.22 q 0,-1.584 -0.972,-2.376 -0.936,-0.792 -2.664,-0.792 -1.728,0 -2.7,0.792 -0.936,0.792 -0.936,2.376 v 0.756 q 0,1.584 0.936,2.376 0.972,0.792 2.7,0.792 z"
       id="path46" />
    <path
       d="m 329.49958,61.792 q -2.664,0 -4.608,-1.188 -1.944,-1.224 -3.024,-3.42 -1.044,-2.196 -1.044,-5.184 0,-2.988 1.044,-5.148 1.044,-2.196 2.952,-3.42 1.908,-1.224 4.572,-1.224 2.772,0 4.608,1.26 1.872,1.224 2.808,3.348 0.936,2.124 0.936,4.716 v 1.476 h -12.816 v 0.612 q 0,2.16 1.26,3.564 1.296,1.368 3.672,1.368 1.728,0 2.916,-0.756 1.188,-0.756 1.98,-2.052 l 2.34,2.268 q -1.08,1.692 -3.06,2.736 -1.944,1.044 -4.536,1.044 z m -0.036,-16.524 q -1.368,0 -2.412,0.648 -1.008,0.612 -1.584,1.728 -0.54,1.08 -0.54,2.52 v 0.252 h 8.712 v -0.36 q 0,-1.44 -0.504,-2.52 -0.504,-1.08 -1.44,-1.656 -0.936,-0.612 -2.232,-0.612 z"
       id="path48" />
  </g>
</svg>
